<svg width="96" height="96" viewBox="0 0 96 96" fill="none" xmlns="http://www.w3.org/2000/svg">
  <rect width="96" height="96" rx="23" fill="url(#dg)"/>
  <!-- left shoulder + side -->
  <path d="M41 32 H30 a4.5 4.5 0 0 0-4.5 4.5 V53 a3 3 0 0 0 1.2 2.4 L34 60.5"
        stroke="#fff" stroke-width="5.4" stroke-linecap="round" stroke-linejoin="round" fill="none"/>
  <!-- right shoulder + side -->
  <path d="M55 32 H66 a4.5 4.5 0 0 1 4.5 4.5 V53 a3 3 0 0 1-1.2 2.4 L62 60.5"
        stroke="#fff" stroke-width="5.4" stroke-linecap="round" stroke-linejoin="round" fill="none"/>
  <!-- bold download arrow -->
  <path d="M43 24 h10 v14 h7 L48 52 36 38 h7 z" fill="#fff" stroke="#fff" stroke-width="1.4" stroke-linejoin="round"/>
  <!-- baseline dash -->
  <rect x="28" y="58" width="40" height="5.8" rx="2.9" fill="#fff"/>
  <!-- bottom chevron (shield point) -->
  <path d="M40 68 L48 75 56 68" stroke="#fff" stroke-width="5.4" stroke-linecap="round" stroke-linejoin="round" fill="none"/>
  <defs>
    <linearGradient id="dg" x1="8" y1="6" x2="88" y2="90" gradientUnits="userSpaceOnUse">
      <stop stop-color="#3f6ef6"/>
      <stop offset="1" stop-color="#9b5cf6"/>
    </linearGradient>
  </defs>
</svg>
